<svg width="40" height="40" viewBox="0 0 40 40" fill="none" xmlns="http://www.w3.org/2000/svg">
<path d="M20 40C31.0452 40 40 31.0452 40 20C40 8.95481 31.0452 -3.91427e-07 20 -8.74228e-07C8.95481 -1.35703e-06 -3.91427e-07 8.95481 -8.74228e-07 20C-1.35703e-06 31.0452 8.95481 40 20 40ZM12.8712 15.7692L27.1288 15.7692C27.421 15.7695 27.7071 15.8529 27.9536 16.0097C28.2001 16.1666 28.3968 16.3904 28.5208 16.6549C28.6447 16.9195 28.6908 17.2139 28.6536 17.5037C28.6164 17.7935 28.4974 18.0667 28.3106 18.2913L21.1827 26.8577C21.0383 27.0312 20.8575 27.1709 20.6531 27.2667C20.4487 27.3625 20.2257 27.4122 20 27.4122C19.7743 27.4122 19.5513 27.3625 19.3469 27.2667C19.1425 27.1709 18.9617 27.0312 18.8173 26.8577L11.6894 18.2913C11.5026 18.0667 11.3836 17.7935 11.3464 17.5037C11.3092 17.2139 11.3553 16.9195 11.4792 16.6549C11.6032 16.3904 11.7999 16.1666 12.0464 16.0097C12.2929 15.8529 12.579 15.7695 12.8712 15.7692Z" fill="#2C0D0E"/>
</svg>
