<svg width="20" height="20" viewBox="0 0 19 20" fill="none" xmlns="http://www.w3.org/2000/svg">
<path d="M18.8385 10C18.8385 4.4774 14.6212 0 9.41927 0C4.21739 0 0 4.4774 0 10C0 15.5226 4.21739 20 9.41927 20C14.6212 20 18.8385 15.5226 18.8385 10ZM7.42673 13.5644V6.43558C7.42684 6.28949 7.46612 6.14646 7.54 6.02321C7.61387 5.89996 7.71927 5.80159 7.84387 5.73961C7.96847 5.67763 8.10713 5.65459 8.24361 5.67321C8.38009 5.69182 8.50875 5.75131 8.61456 5.84471L12.649 9.40865C12.7307 9.48084 12.7965 9.57124 12.8416 9.67344C12.8868 9.77564 12.9102 9.88713 12.9102 10C12.9102 10.1129 12.8868 10.2244 12.8416 10.3266C12.7965 10.4288 12.7307 10.5192 12.649 10.5913L8.61456 14.1553C8.50875 14.2487 8.38009 14.3082 8.24361 14.3268C8.10713 14.3454 7.96847 14.3224 7.84387 14.2604C7.71927 14.1984 7.61387 14.1 7.54 13.9768C7.46612 13.8535 7.42684 13.7105 7.42673 13.5644Z" fill="#2C0D0E"/>
</svg>
