<svg width="36" height="37" viewBox="0 0 36 37" fill="none" xmlns="http://www.w3.org/2000/svg">
<path d="M18.1361 0.597656C8.2711 0.597656 0.272217 8.59654 0.272217 18.4616C0.272217 28.3266 8.2711 36.3255 18.1361 36.3255C28.0012 36.3255 36 28.3266 36 18.4616C36 8.59654 28.0012 0.597656 18.1361 0.597656ZM21.9003 11.5712H28.049V13.4054H21.9003V11.5712ZM18.7901 21.205C18.7901 25.7507 14.0529 25.6071 14.0529 25.6071H6.30129V10.694H14.0529C16.4135 10.694 18.2717 11.9939 18.2717 14.6655C18.2717 17.3371 15.9988 17.5046 15.9988 17.5046C18.9974 17.5046 18.7901 21.205 18.7901 21.205ZM30.29 20.9577H22.5622C22.5622 23.725 25.186 23.5496 25.186 23.5496C27.6662 23.5496 27.5785 21.9466 27.5785 21.9466H30.2022C30.2022 26.2053 25.0983 25.9102 25.0983 25.9102C18.9815 25.9102 19.3722 20.2081 19.3722 20.2081C19.3722 20.2081 19.3643 14.4821 25.0983 14.4821C31.1353 14.49 30.29 20.9577 30.29 20.9577Z" fill="white"/>
</svg>
