<svg width="33" height="35" viewBox="0 0 33 35" fill="none" xmlns="http://www.w3.org/2000/svg">
<path d="M16.25 0C7.28984 0 0 7.73929 0 17.2519C0 26.7645 7.28984 34.5037 16.25 34.5037C25.2102 34.5037 32.5 26.7645 32.5 17.2519C32.5 7.73929 25.2102 0 16.25 0ZM24.707 11.47L14.207 24.7407C14.0919 24.8863 13.9485 25.004 13.7868 25.0857C13.625 25.1674 13.4486 25.2113 13.2695 25.2143H13.2484C13.0732 25.2142 12.9 25.175 12.74 25.0993C12.5799 25.0236 12.4367 24.913 12.3195 24.7747L7.81953 19.4664C7.70525 19.3377 7.61635 19.1861 7.55805 19.0204C7.49976 18.8547 7.47325 18.6783 7.48008 18.5016C7.48692 18.3249 7.52695 18.1514 7.59784 17.9914C7.66873 17.8313 7.76903 17.6879 7.89287 17.5696C8.0167 17.4513 8.16156 17.3605 8.31894 17.3024C8.47631 17.2444 8.64302 17.2204 8.80927 17.2317C8.97552 17.2431 9.13796 17.2896 9.28703 17.3685C9.4361 17.4475 9.56881 17.5573 9.67734 17.6915L13.2156 21.8651L22.793 9.76307C23.0078 9.49938 23.3117 9.33603 23.6391 9.30834C23.9665 9.28064 24.2909 9.39083 24.5424 9.61507C24.7938 9.83931 24.9521 10.1596 24.9829 10.5067C25.0137 10.8538 24.9146 11.1998 24.707 11.47Z" fill="white"/>
</svg>
