<svg width="78" height="79" viewBox="0 0 78 79" fill="none" xmlns="http://www.w3.org/2000/svg">
<path d="M68.25 9.875H9.75C7.05761 9.875 4.875 12.0856 4.875 14.8125V54.3125C4.875 57.0394 7.05761 59.25 9.75 59.25H68.25C70.9424 59.25 73.125 57.0394 73.125 54.3125V14.8125C73.125 12.0856 70.9424 9.875 68.25 9.875Z" stroke="white" stroke-width="3" stroke-linejoin="round"/>
<path d="M46.3125 69.125L45.0938 59.25H32.9062L31.6875 69.125H46.3125Z" fill="white" stroke="white" stroke-width="2" stroke-linecap="round" stroke-linejoin="round"/>
<path d="M56.0625 69.125H21.9375" stroke="white" stroke-width="2" stroke-linecap="round" stroke-linejoin="round"/>
<path d="M4.875 46.9062V54.3125C4.87862 55.6209 5.39339 56.8746 6.30685 57.7998C7.22031 58.725 8.45818 59.2463 9.75 59.25H68.25C69.5418 59.2463 70.7797 58.725 71.6932 57.7998C72.6066 56.8746 73.1214 55.6209 73.125 54.3125V46.9062H4.875ZM39 56.7812C38.5179 56.7812 38.0466 56.6365 37.6458 56.3652C37.245 56.0939 36.9325 55.7084 36.748 55.2572C36.5636 54.8061 36.5153 54.3098 36.6093 53.8309C36.7034 53.352 36.9355 52.9121 37.2764 52.5668C37.6173 52.2216 38.0516 51.9864 38.5245 51.8912C38.9973 51.7959 39.4874 51.8448 39.9328 52.0317C40.3782 52.2185 40.7589 52.535 41.0267 52.9409C41.2945 53.3469 41.4375 53.8242 41.4375 54.3125C41.4375 54.9673 41.1807 55.5952 40.7236 56.0582C40.2665 56.5212 39.6465 56.7812 39 56.7812Z" fill="white"/>
</svg>
