<svg width="35" height="38" viewBox="0 0 35 38" fill="none" xmlns="http://www.w3.org/2000/svg">
<path d="M17.4868 38C7.90483 37.9857 0.0109872 29.4151 1.13127e-05 19.0109C-0.0109646 8.5804 7.9663 -0.0568711 17.5614 0.00028202C27.1565 0.0574352 35.0372 8.66375 34.9999 19.0394C34.9604 29.458 27.0599 38.0119 17.4868 37.9976V38ZM15.1577 26.7813H19.3878C19.3878 26.0097 19.3768 25.312 19.39 24.6142C19.4207 23.0425 19.4097 21.4637 19.5239 19.8991C19.6095 18.7227 20.2966 18.0916 21.201 18.1369C22.0769 18.1798 22.5642 18.787 22.5927 20.0372C22.6323 21.8566 22.6059 23.6784 22.6081 25.4977C22.6081 25.9335 22.6081 26.3693 22.6081 26.7932H26.836C26.836 23.8355 26.9809 20.9279 26.7921 18.0464C26.6297 15.5817 25.2006 14.4743 22.9176 14.4838C21.3964 14.4886 20.2505 15.3007 19.1727 16.5533C19.1375 15.8579 19.1112 15.3483 19.0849 14.7863H15.1599V26.7789L15.1577 26.7813ZM8.17923 14.7815V26.7861H12.3347V14.7839H8.17923V14.7815ZM10.2076 12.8145C11.461 12.8288 12.394 11.9191 12.3874 10.6927C12.3808 9.52105 11.4588 8.59945 10.2778 8.58278C9.05291 8.56611 8.09581 9.50676 8.1002 10.7213C8.1046 11.9024 9.00901 12.8002 10.2054 12.8145H10.2076Z" fill="#FCFCFC"/>
</svg>
