<svg width="79" height="79" viewBox="0 0 79 79" fill="none" xmlns="http://www.w3.org/2000/svg">
<g clip-path="url(#clip0_422_465)">
<path d="M63.0565 46.0625C62.415 46.0655 61.787 45.8781 61.2522 45.5239C60.7173 45.1697 60.2996 44.6647 60.052 44.0729C59.8043 43.4811 59.738 42.8292 59.8612 42.1996C59.9845 41.57 60.2919 40.9912 60.7444 40.5365C61.197 40.0818 61.7743 39.7717 62.4033 39.6454C63.0322 39.5191 63.6845 39.5824 64.2775 39.8272C64.8705 40.072 65.3774 40.4873 65.7342 41.0205C66.0909 41.5536 66.2813 42.1807 66.2813 42.8222C66.2844 43.2473 66.2032 43.6688 66.0424 44.0623C65.8816 44.4557 65.6444 44.8135 65.3446 45.1148C65.0447 45.4161 64.6881 45.6549 64.2954 45.8176C63.9027 45.9803 63.4816 46.0635 63.0565 46.0625ZM47.292 46.0625C46.6505 46.0655 46.0225 45.8781 45.4876 45.5239C44.9528 45.1697 44.5351 44.6647 44.2874 44.0729C44.0398 43.4811 43.9735 42.8292 44.0967 42.1996C44.22 41.57 44.5274 40.9912 44.9799 40.5365C45.4325 40.0818 46.0098 39.7717 46.6387 39.6454C47.2677 39.5191 47.92 39.5824 48.513 39.8272C49.1059 40.072 49.6129 40.4873 49.9696 41.0205C50.3264 41.5536 50.5168 42.1807 50.5168 42.8222C50.5201 43.2474 50.439 43.6689 50.2783 44.0625C50.1176 44.4561 49.8804 44.8139 49.5805 45.1152C49.2806 45.4166 48.9239 45.6554 48.5311 45.818C48.1383 45.9806 47.7171 46.0637 47.292 46.0625ZM70.759 64.4022C75.7752 60.8055 79 55.4129 79 49.2996C79 38.3322 68.4307 29.3413 55.175 29.3413C41.9194 29.3413 31.3485 38.3322 31.3485 49.2996C31.3485 60.267 41.9178 69.2564 55.175 69.2564C57.8613 69.2564 60.5492 68.8969 62.8775 68.1763C63.2617 68.0436 63.4145 67.9958 63.5935 67.9958C64.0357 68.0062 64.4678 68.1306 64.8479 68.3568L70.0508 71.4134C70.2191 71.5017 70.4003 71.5626 70.5877 71.594C70.7741 71.5813 70.9496 71.5014 71.0815 71.3692C71.2135 71.237 71.293 71.0613 71.3052 70.8749C71.2933 70.6719 71.2533 70.4714 71.1864 70.2794C71.1232 70.0541 70.4149 67.8106 70.0508 66.3803C70.0174 66.2037 70.0004 66.0245 69.9999 65.8449C70.002 65.5599 70.0733 65.2797 70.2077 65.0284C70.3421 64.7771 70.5355 64.5622 70.7714 64.4022" fill="white"/>
<path d="M37.9771 27.5435C36.9757 27.5435 36.0154 27.1457 35.3073 26.4377C34.5992 25.7296 34.2014 24.7693 34.2014 23.7679C34.2014 22.7665 34.5992 21.8062 35.3073 21.0981C36.0154 20.39 36.9757 19.9922 37.9771 19.9922C39.9475 19.9922 41.7388 21.7898 41.7388 23.7679C41.9178 25.746 40.1264 27.5435 37.9771 27.5435ZM18.9893 27.5435C18.2422 27.5463 17.5111 27.3273 16.8886 26.9144C16.266 26.5015 15.7799 25.9131 15.4918 25.2238C15.2037 24.5345 15.1266 23.7753 15.2702 23.0421C15.4138 22.309 15.7717 21.6349 16.2986 21.1052C16.8254 20.5756 17.4976 20.2141 18.2299 20.0666C18.9623 19.9191 19.722 19.9922 20.4128 20.2766C21.1036 20.561 21.6946 21.0439 22.1108 21.6643C22.527 22.2847 22.7498 23.0146 22.7511 23.7617C22.747 24.7594 22.3499 25.7154 21.6457 26.4222C20.9415 27.129 19.987 27.5297 18.9893 27.5374M28.4832 7.40625C12.7187 7.40625 0 18.0142 0 31.3223C0 38.514 3.76176 44.9868 9.85186 49.3025C10.3904 49.6589 10.4922 50.4551 10.4922 50.7637C10.5051 50.9991 10.4705 51.2347 10.3904 51.4565C9.85186 53.254 9.16523 56.1641 9.13592 56.3184C9.1066 56.4727 8.95693 56.8584 8.95693 57.0374C8.9493 57.1571 8.96718 57.2771 9.00939 57.3894C9.0516 57.5016 9.11718 57.6037 9.20178 57.6887C9.28638 57.7738 9.38809 57.8399 9.50016 57.8827C9.61222 57.9255 9.7321 57.944 9.85186 57.9369C10.044 57.9248 10.2297 57.8625 10.3904 57.7564L16.6641 54.1582C17.2026 53.7987 17.5605 53.7987 18.0975 53.7987C18.4047 53.8032 18.7085 53.8638 18.9939 53.9777C21.8592 54.8772 25.084 55.2367 28.3088 55.2367H29.9212C29.3339 53.3136 29.0319 51.3148 29.0248 49.304C29.0248 37.2565 40.6696 27.5482 55.0007 27.5482H56.6131C54.6365 16.2166 42.8143 7.40625 28.4832 7.40625Z" fill="white"/>
</g>
<defs>
<clipPath id="clip0_422_465">
<rect width="79" height="79" fill="white"/>
</clipPath>
</defs>
</svg>
