<svg width="104" height="100" viewBox="0 0 104 100" fill="none" xmlns="http://www.w3.org/2000/svg">
<g clip-path="url(#clip0_401_36)">
<path d="M35.2342 27.3306H16.5295C15.6885 27.3306 14.9364 27.8615 14.6574 28.66L12.0494 36.0652C11.5925 37.3622 12.5508 38.72 13.9215 38.72H37.8422C39.2129 38.72 40.1712 37.3622 39.7143 36.0652L37.1063 28.66C36.8273 27.8615 36.0752 27.3306 35.2342 27.3306ZM44.0448 23.9502H33.1397C31.7448 23.9502 30.7865 25.3526 31.2838 26.6577L31.5426 27.3306L35.9095 38.72L38.5538 45.6145C38.849 46.3846 39.5849 46.8912 40.4097 46.8912H52.3135C53.7449 46.8912 54.7072 45.4159 54.133 44.1026L45.8643 25.1459C45.5489 24.4204 44.8332 23.9502 44.0448 23.9502ZM33.6047 0H20.7023C19.9138 0 19.1981 0.470169 18.8827 1.19569L0.169942 44.1026C-0.404219 45.4199 0.558108 46.8912 1.98947 46.8912H13.6223C14.4431 46.8912 15.183 46.3846 15.4782 45.6145L18.1226 38.72L22.4894 27.3306L22.7482 26.6577C23.2496 25.3526 22.2873 23.9502 20.8923 23.9502H9.32822C8.96027 23.9502 9.32822 23.6462 9.32822 23.2733C9.32822 22.9005 9.6436 22.5965 10.0075 22.5965H22.9383C23.7591 22.5965 24.499 22.0898 24.7942 21.3197L25.1621 20.3591C25.8172 18.6568 28.2189 18.6568 28.874 20.3591L29.2419 21.3197C29.5371 22.0898 30.273 22.5965 31.0978 22.5965H41.7198C43.1512 22.5965 44.1135 21.1211 43.5393 19.8079L35.4243 1.19569C35.1089 0.470169 34.3932 0 33.6047 0Z" fill="white"/>
<path d="M73.2622 23.9502H59.9958C58.8354 23.9502 57.8932 24.8946 57.8932 26.0579V44.7836C57.8932 45.9468 58.8354 46.8912 59.9958 46.8912H71.1596C72.3201 46.8912 73.2622 45.9468 73.2622 44.7836V31.3797C73.2622 29.4099 75.7206 28.5141 76.978 30.0259L90.4061 46.1333C90.8064 46.6115 91.3968 46.8912 92.0195 46.8912H101.897C103.058 46.8912 104 45.9468 104 44.7836V26.0538C104 24.8906 103.058 23.9462 101.897 23.9462H73.2622V23.9502ZM88.6311 2.10765V15.5115C88.6311 17.4814 86.1727 18.3771 84.9152 16.8653L71.4871 0.757944C71.0868 0.279669 70.4965 0 69.8738 0H59.9958C58.8354 0 57.8932 0.94439 57.8932 2.10765V20.4888C57.8932 21.6521 58.8354 22.5965 59.9958 22.5965H101.897C103.058 22.5965 104 21.6521 104 20.4888V2.10765C104 0.94439 103.058 0 101.897 0H90.7337C89.5732 0 88.6311 0.94439 88.6311 2.10765Z" fill="white"/>
<path d="M3.2549 54.2802V62.0501C3.2549 63.2904 4.25766 64.2956 5.49494 64.2956H14.7179C15.9552 64.2956 16.9579 65.3007 16.9579 66.541V72.3938C16.9579 73.6341 17.9607 74.6393 19.198 74.6393H30.4912C31.7284 74.6393 32.7312 73.6341 32.7312 72.3938V66.541C32.7312 65.3007 33.734 64.2956 34.9712 64.2956H44.1942C45.4315 64.2956 46.4342 63.2904 46.4342 62.0501V54.2802C46.4342 53.0399 45.4315 52.0347 44.1942 52.0347H5.49089C4.25362 52.0347 3.25085 53.0399 3.25085 54.2802H3.2549ZM19.1939 98.93H30.4871C31.7244 98.93 32.7272 97.9248 32.7272 96.6845V78.2263C32.7272 76.9861 31.7244 75.9809 30.4871 75.9809H19.1939C17.9567 75.9809 16.9539 76.9861 16.9539 78.2263V96.6845C16.9539 97.9248 17.9567 98.93 19.1939 98.93Z" fill="#9692D7"/>
<path d="M74.1153 99.7001V90.1265C74.1153 89.2186 73.8929 88.3309 73.4684 87.5324L73.2621 87.1514L72.4211 85.5788C70.6461 82.2593 67.9774 79.5274 64.7346 77.7116L63.9462 77.1928L63.7481 77.0631C62.6725 76.3538 61.4191 75.9768 60.1373 75.9768H47.9586C48.0152 79.3126 48.6703 82.4092 49.9237 85.2545C51.2338 88.2458 53.0735 90.8479 55.4348 93.0569C57.7962 95.2659 60.5942 96.9763 63.8208 98.1801C67.0475 99.388 70.5571 99.9919 74.3458 99.9919H74.3902C74.2204 99.9797 74.1072 99.9189 74.1072 99.692L74.1153 99.7001ZM100.64 75.9849H89.1163C88.1701 75.9849 87.2401 76.2281 86.4112 76.6902L84.7049 77.6467L84.5796 77.7156C81.3368 79.5315 78.6682 82.2593 76.8931 85.5788L76.1168 87.042C76.1168 87.042 76.1087 87.0582 76.1046 87.0663C75.6639 87.8972 75.4334 88.8295 75.4334 89.7738V99.6068C75.4334 99.8865 75.2758 99.9635 75.0412 99.9879C78.6035 99.923 81.8948 99.3191 84.9071 98.1882C88.1135 96.9804 90.8954 95.274 93.2607 93.065C95.6221 90.856 97.4618 88.2539 98.7719 85.2627C100.05 82.3565 100.705 79.1991 100.737 75.7863C100.721 75.8755 100.692 75.9444 100.632 75.9849H100.64ZM98.7759 65.6696C97.4618 62.6986 95.6221 60.1086 93.2648 57.8997C90.9035 55.6907 88.1216 53.9802 84.9111 52.7764C81.9393 51.6578 78.7005 51.0579 75.1949 50.9768C75.3404 51.0255 75.4375 51.1227 75.4375 51.3213V61.0692C75.4375 62.0339 75.672 62.9742 76.1249 63.8213L76.1693 63.9065L76.9012 65.2724C78.6762 68.5919 81.3449 71.3238 84.5877 73.1355L84.6968 73.1963L86.2212 74.0516C86.9045 74.4326 87.6687 74.6312 88.4451 74.6312H100.644C100.697 74.6393 100.725 74.6839 100.741 74.7609C100.66 71.4697 100.005 68.4339 98.78 65.6655L98.7759 65.6696ZM63.8249 52.7764C60.5942 53.9843 57.8002 55.6907 55.4389 57.8997C53.0775 60.1086 51.2378 62.6986 49.9277 65.6696C48.7147 68.4014 48.0637 71.3927 47.9707 74.6352H59.6561C61.1603 74.6352 62.6361 74.2664 63.9664 73.5652C64.0351 73.5287 64.1039 73.4922 64.1726 73.4557L64.7346 73.1396C67.9815 71.3238 70.6461 68.596 72.4211 65.2764L73.1974 63.8213L73.3349 63.566C73.8444 62.6135 74.1113 61.5394 74.1113 60.4532V51.3416C74.1113 51.1187 74.2043 51.0133 74.3579 50.9687H74.3498C70.5612 50.9687 67.0555 51.5726 63.8249 52.7805V52.7764Z" fill="#9692D7"/>
</g>
<defs>
<clipPath id="clip0_401_36">
<rect width="104" height="100" fill="white"/>
</clipPath>
</defs>
</svg>
