<svg width="53" height="50" viewBox="0 0 53 50" fill="none" xmlns="http://www.w3.org/2000/svg">
<path d="M26.1567 48.7313V39.1577C26.1567 38.2498 25.9343 37.3622 25.5097 36.5637L25.3035 36.1827L24.4625 34.6101C22.6875 31.2905 20.0188 28.5587 16.776 26.7429L15.9876 26.2241L15.7894 26.0944C14.7139 25.3851 13.4604 25.0081 12.1787 25.0081H0C0.0566074 28.3439 0.711637 31.4405 1.96509 34.2858C3.27515 37.2771 5.11489 39.8792 7.47623 42.0882C9.83757 44.2972 12.6356 46.0076 15.8622 47.2114C19.0888 48.4193 22.5985 49.0232 26.3872 49.0232H26.4316C26.2618 49.011 26.1486 48.9502 26.1486 48.7233L26.1567 48.7313ZM52.6813 25.0162H41.1576C40.2115 25.0162 39.2815 25.2594 38.4526 25.7215L36.7463 26.678L36.621 26.7469C33.3782 28.5627 30.7095 31.2905 28.9345 34.6101L28.1582 36.0733C28.1582 36.0733 28.1501 36.0895 28.146 36.0976C27.7053 36.9285 27.4748 37.8607 27.4748 38.8051V48.6381C27.4748 48.9178 27.3171 48.9948 27.0826 49.0191C30.6448 48.9543 33.9362 48.3504 36.9485 47.2195C40.1549 46.0117 42.9367 44.3053 45.3021 42.0963C47.6635 39.8873 49.5032 37.2852 50.8133 34.2939C52.091 31.3878 52.746 28.2304 52.7784 24.8176C52.7622 24.9068 52.7339 24.9757 52.6732 25.0162H52.6813ZM50.8173 14.7009C49.5032 11.7299 47.6635 9.13992 45.3062 6.93094C42.9448 4.72195 40.163 3.01151 36.9525 1.80772C33.9806 0.689043 30.7419 0.0891685 27.2363 0.00810499C27.3818 0.0567431 27.4789 0.154022 27.4789 0.352628V10.1005C27.4789 11.0652 27.7134 12.0055 28.1662 12.8526L28.2107 12.9377L28.9426 14.3037C30.7176 17.6232 33.3863 20.3551 36.6291 22.1668L36.7382 22.2276L38.2626 23.0828C38.9459 23.4638 39.7101 23.6625 40.4865 23.6625H52.6854C52.7379 23.6706 52.7662 23.7151 52.7824 23.7922C52.7015 20.501 52.0465 17.4651 50.8214 14.6968L50.8173 14.7009ZM15.8663 1.80772C12.6356 3.01557 9.84161 4.72195 7.48027 6.93094C5.11893 9.13992 3.27919 11.7299 1.96913 14.7009C0.756115 17.4327 0.105128 20.424 0.0121297 23.6665H11.6975C13.2017 23.6665 14.6775 23.2977 16.0078 22.5965C16.0765 22.56 16.1453 22.5235 16.214 22.487L16.776 22.1709C20.0229 20.3551 22.6875 17.6273 24.4625 14.3077L25.2388 12.8526L25.3763 12.5973C25.8858 11.6448 26.1526 10.5707 26.1526 9.48443V0.372892C26.1526 0.149967 26.2456 0.044585 26.3993 0H26.3912C22.6025 0 19.0969 0.603924 15.8663 1.81177V1.80772Z" fill="#9692D7"/>
</svg>
