<svg width="40" height="43" viewBox="0 0 40 43" fill="none" xmlns="http://www.w3.org/2000/svg">
<path d="M40 21.2331C40 9.5069 31.0452 0 20 0C8.95481 0 0 9.5069 0 21.2331C0 32.9592 8.95481 42.4661 20 42.4661C31.0452 42.4661 40 32.9592 40 21.2331ZM15.7692 28.8014V13.6647C15.7695 13.3545 15.8529 13.0508 16.0097 12.7891C16.1666 12.5274 16.3904 12.3186 16.6549 12.1869C16.9195 12.0553 17.2139 12.0064 17.5037 12.046C17.7935 12.0855 18.0667 12.2118 18.2913 12.4101L26.8577 19.9775C27.0312 20.1307 27.1709 20.3227 27.2667 20.5397C27.3626 20.7567 27.4122 20.9934 27.4122 21.2331C27.4122 21.4727 27.3626 21.7095 27.2667 21.9265C27.1709 22.1435 27.0312 22.3354 26.8577 22.4887L18.2913 30.056C18.0667 30.2543 17.7935 30.3807 17.5037 30.4202C17.2139 30.4597 16.9195 30.4108 16.6549 30.2792C16.3904 30.1476 16.1666 29.9387 16.0097 29.677C15.8529 29.4153 15.7695 29.1116 15.7692 28.8014Z" fill="#2C0D0E"/>
</svg>
