<svg width="39" height="39" viewBox="0 0 39 39" fill="none" xmlns="http://www.w3.org/2000/svg">
<path d="M27.078 17.5762C24.6029 17.5762 24.2603 20.0427 24.2603 20.0427H29.5189C29.5189 20.0427 29.5531 17.5762 27.078 17.5762ZM15.1478 20.0427H10.4888V24.3249H14.9166C15.5846 24.3078 16.835 24.1194 16.835 22.2438C16.835 20.017 15.1478 20.0427 15.1478 20.0427Z" fill="white"/>
<path d="M19.5329 0.310547C8.93873 0.310547 0.348633 8.90065 0.348633 19.4948C0.348633 30.089 8.93873 38.6791 19.5329 38.6791C30.1271 38.6791 38.7172 30.089 38.7172 19.4948C38.7172 8.90065 30.1271 0.310547 19.5329 0.310547ZM23.5753 12.0952H30.1785V14.065H23.5753V12.0952ZM20.2352 22.441C20.2352 27.3227 15.1479 27.1685 15.1479 27.1685H6.82332V11.1531H15.1479C17.683 11.1531 19.6785 12.5491 19.6785 15.4182C19.6785 18.2872 17.2376 18.4671 17.2376 18.4671C20.4579 18.4671 20.2352 22.441 20.2352 22.441ZM32.5851 22.1755H24.2862C24.2862 25.1473 27.1038 24.9589 27.1038 24.9589C29.7674 24.9589 29.6732 23.2375 29.6732 23.2375H32.4909C32.4909 27.8109 27.0096 27.494 27.0096 27.494C20.4407 27.494 20.8604 21.3704 20.8604 21.3704C20.8604 21.3704 20.8518 15.2212 27.0096 15.2212C33.4929 15.2297 32.5851 22.1755 32.5851 22.1755Z" fill="white"/>
<path d="M16.2783 15.6674C16.2783 14.0059 15.1478 14.0059 15.1478 14.0059H10.4888V17.5772H14.8566C15.6103 17.5772 16.2783 17.3289 16.2783 15.6674Z" fill="white"/>
</svg>
