<svg width="486" height="614" viewBox="0 0 486 614" fill="none" xmlns="http://www.w3.org/2000/svg">
<g clip-path="url(#clip0_421_384)">
<path d="M209.842 20.1552L203.045 38.1732C202.469 39.6977 201.527 41.0504 200.308 42.119L198.184 43.9799C193.346 48.2022 187.438 50.9449 181.164 51.8865L177.619 52.4171C176.011 52.6563 174.381 52.4844 172.871 51.9164L154.445 44.9738C153.861 44.7571 153.203 45.056 152.979 45.6539C152.755 46.2517 153.046 46.9094 153.63 47.1261L173.132 54.4797C174.374 54.9506 175.473 55.7278 176.333 56.7441L178.397 59.1879C182.495 64.038 185.12 70.0016 185.957 76.3613L186.324 79.1414C186.533 80.7556 186.346 82.4072 185.77 83.9392L178.412 103.429C178.188 104.027 178.479 104.685 179.062 104.902C179.646 105.118 180.304 104.819 180.528 104.222L187.513 85.7178C188.171 83.984 189.24 82.4371 190.631 81.2189L193.121 79.0442C197.96 74.8219 203.867 72.0792 210.149 71.1376L211.241 70.9732C213.925 70.5696 216.647 70.861 219.175 71.8102L235.268 77.8784C235.851 78.1026 236.509 77.7962 236.733 77.1983C236.958 76.6005 236.666 75.9428 236.083 75.7261L219.212 69.3739C217.163 68.6041 215.383 67.244 214.09 65.4654L212.908 63.8362C208.81 58.9861 206.185 53.0225 205.348 46.6628L204.854 42.9187C204.652 41.3941 204.832 39.8397 205.378 38.3974L211.966 20.9399C212.19 20.3421 211.899 19.6844 211.315 19.4677C210.732 19.251 210.074 19.5499 209.85 20.1478L209.842 20.1552Z" fill="#D2D2F4"/>
<path d="M418.899 51.7819C431.178 82.3773 415.706 117.472 384.41 130.019C353.115 142.567 317.661 127.882 305.382 97.2864C293.103 66.691 308.575 31.5967 339.863 19.0492C371.159 6.50166 406.613 21.1865 418.892 51.7819H418.899ZM307.356 96.5017C319.209 126.036 353.429 140.205 383.64 128.091C413.852 115.977 428.785 82.1008 416.925 52.5741C405.072 23.0399 370.853 8.87068 340.641 20.9848C310.43 33.0989 295.504 66.975 307.356 96.5017Z" fill="#D2D2F4"/>
<path d="M346.399 29.6014C356.166 53.9417 343.864 81.8617 318.962 91.8384C294.068 101.815 265.86 90.142 256.094 65.8017C246.328 41.4614 258.629 13.5415 283.524 3.56473C308.418 -6.4195 336.625 5.26115 346.392 29.6014H346.399ZM257.665 65.174C267.094 88.6698 294.315 99.9394 318.349 90.3064C342.384 80.6734 354.259 53.725 344.829 30.2292C335.399 6.73338 308.171 -4.53625 284.144 5.09674C260.11 14.7297 248.235 41.6782 257.665 65.174Z" fill="#9692D7"/>
<path d="M290.284 214.16L317.145 213.637C319.411 213.592 321.654 214.108 323.666 215.132L327.173 216.918C335.145 220.991 341.748 227.208 346.22 234.846L348.74 239.158C349.877 241.109 350.505 243.313 350.542 245.563L351.073 272.989C351.088 273.856 351.821 274.544 352.711 274.529C353.601 274.514 354.304 273.797 354.289 272.922L353.728 243.889C353.69 242.043 354.132 240.212 355.007 238.575L357.108 234.637C361.273 226.827 367.637 220.356 375.444 215.976L378.854 214.063C380.836 212.95 383.072 212.344 385.353 212.299L414.405 211.739C415.295 211.724 415.998 211.007 415.983 210.132C415.968 209.265 415.235 208.57 414.345 208.593L386.774 209.131C384.186 209.183 381.629 208.593 379.34 207.427L375.242 205.334C367.271 201.261 360.66 195.044 356.196 187.399L355.418 186.076C353.511 182.818 352.472 179.133 352.404 175.374L351.941 151.423C351.926 150.556 351.193 149.868 350.303 149.883C349.413 149.898 348.71 150.615 348.725 151.482L349.219 176.585C349.278 179.634 348.441 182.638 346.803 185.231L345.308 187.608C341.142 195.417 334.778 201.889 326.971 206.269L322.38 208.839C320.51 209.886 318.401 210.454 316.255 210.498L290.232 210.999C289.342 211.014 288.639 211.731 288.654 212.606C288.669 213.473 289.401 214.168 290.291 214.145L290.284 214.16Z" fill="#9692D7"/>
<path d="M476.899 315.146H358.26C353.234 315.146 349.166 319.219 349.166 324.233V418.702C349.166 423.724 353.242 427.797 358.26 427.797H365.573C366.336 437.527 367.099 447.25 367.854 456.98C367.929 457.115 368.736 458.43 370.299 458.564C371.563 458.669 372.804 457.959 373.41 456.756C380.35 447.1 387.289 437.453 394.237 427.797H476.907C481.932 427.797 486.007 423.724 486.007 418.702V324.233C486.007 319.211 481.932 315.146 476.907 315.146H476.899Z" fill="#D2D2F4"/>
<path d="M465.45 329.636H370.299C368.152 329.636 366.411 331.376 366.411 333.522V402.844C366.411 404.99 368.152 406.73 370.299 406.73H465.45C467.598 406.73 469.339 404.99 469.339 402.844V333.522C469.339 331.376 467.598 329.636 465.45 329.636Z" fill="white"/>
<path d="M419.378 369.095C419.198 369.095 419.011 369.043 418.854 368.93L366.358 332.454C365.947 332.17 365.842 331.594 366.127 331.183C366.418 330.765 366.994 330.668 367.398 330.951L419.894 367.428C420.305 367.712 420.41 368.288 420.126 368.699C419.946 368.953 419.662 369.095 419.378 369.095Z" fill="#9692D7"/>
<path d="M419.378 369.095C419.101 369.095 418.832 368.975 418.653 368.736C418.346 368.333 418.421 367.765 418.817 367.458L467.686 330.1C468.09 329.793 468.666 329.868 468.965 330.272C469.272 330.675 469.197 331.243 468.801 331.549L419.931 368.908C419.767 369.035 419.565 369.095 419.378 369.095Z" fill="#9692D7"/>
<path d="M166.497 127.085C169.481 127.085 171.897 129.499 171.897 132.481V183.082C171.897 185.242 170.147 186.991 167.986 186.991H165.256C164.411 194.247 163.574 201.511 162.728 208.768C162.639 208.857 162.041 209.395 161.166 209.313C160.522 209.253 160.111 208.887 159.984 208.768C153.508 201.504 147.032 194.247 140.556 186.991H78.8694C75.8856 186.991 73.4702 184.577 73.4702 181.595V132.481C73.4702 129.499 75.8856 127.085 78.8694 127.085H166.497Z" fill="#9692D7"/>
<path d="M141.005 156.149C140.257 159.519 143.196 162.456 146.568 161.709C148.266 161.335 149.642 159.96 150.016 158.264C150.764 154.893 147.825 151.956 144.452 152.704C142.755 153.077 141.379 154.452 141.005 156.149Z" fill="#D2D2F4"/>
<path d="M117.127 156.149C116.379 159.519 119.318 162.456 122.691 161.709C124.389 161.335 125.764 159.96 126.138 158.264C126.886 154.893 123.947 151.956 120.575 152.704C118.877 153.077 117.501 154.452 117.127 156.149Z" fill="#D2D2F4"/>
<path d="M95.3362 156.149C94.5884 159.519 97.5272 162.456 100.9 161.709C102.597 161.335 103.973 159.96 104.347 158.264C105.095 154.893 102.156 151.956 98.7836 152.704C97.086 153.077 95.7101 154.452 95.3362 156.149Z" fill="#D2D2F4"/>
<path d="M12.8379 60.2446C9.85414 60.2446 7.43872 62.6585 7.43872 65.6403V116.241C7.43872 118.401 9.18859 120.15 11.3498 120.15H14.0792C14.9243 127.407 15.7618 134.67 16.6068 141.927C16.6966 142.017 17.2948 142.555 18.1698 142.473C18.8129 142.413 19.2242 142.047 19.3513 141.927C25.8273 134.663 32.3033 127.407 38.7793 120.15H100.466C103.45 120.15 105.865 117.736 105.865 114.754V65.6403C105.865 62.6585 103.45 60.2446 100.466 60.2446H12.8379Z" fill="#D2D2F4"/>
<path d="M38.3306 89.3081C39.0784 92.6785 36.1396 95.6155 32.7669 94.8682C31.0694 94.4945 29.6935 93.1194 29.3196 91.423C28.5717 88.0526 31.5106 85.1156 34.8832 85.8629C36.5808 86.2366 37.9567 87.6117 38.3306 89.3081Z" fill="white"/>
<path d="M62.2081 89.3081C62.9559 92.6785 60.017 95.6155 56.6444 94.8682C54.9469 94.4945 53.5709 93.1194 53.197 91.423C52.4492 88.0526 55.3881 85.1156 58.7607 85.8629C60.4582 86.2366 61.8342 87.6117 62.2081 89.3081Z" fill="white"/>
<path d="M83.9992 89.3081C84.747 92.6785 81.8081 95.6155 78.4355 94.8682C76.738 94.4945 75.362 93.1194 74.9881 91.423C74.2403 88.0526 77.1792 85.1156 80.5518 85.8629C82.2493 86.2366 83.6253 87.6117 83.9992 89.3081Z" fill="white"/>
<path d="M249.546 432.634L325.202 419.615C332.822 418.303 340.077 423.417 341.391 431.04L367.845 584.575C369.157 592.19 364.04 599.44 356.413 600.753L280.764 613.77C273.143 615.082 265.887 609.96 264.575 602.345L238.12 448.81C236.808 441.195 241.925 433.945 249.553 432.632L249.546 432.634Z" fill="#9692D7"/>
<path d="M322.72 430.446L255.502 442.013C248.729 443.178 244.184 449.61 245.351 456.378L268.853 592.782C270.02 599.55 276.455 604.092 283.228 602.927L350.446 591.36C357.219 590.195 361.764 583.763 360.598 576.995L337.095 440.591C335.929 433.822 329.493 429.28 322.72 430.446Z" fill="white"/>
<path d="M309.151 528.574C307.783 530.83 306.152 532.729 304.253 534.283C302.354 535.838 300.342 536.794 298.218 537.16C295.885 537.564 293.507 537.272 291.069 536.286C288.639 535.299 286.485 533.513 284.631 530.928C282.768 528.342 281.55 525.353 280.966 521.975C280.248 517.812 280.6 513.463 282.021 508.919C283.434 504.383 285.55 500.788 288.355 498.15C291.166 495.512 294.06 493.935 297.044 493.427C299.325 493.038 301.598 493.255 303.872 494.092C306.145 494.922 308.239 496.431 310.153 498.606L310.445 492.291L317.474 491.08L316.353 518.395C316.195 522.191 316.151 524.291 316.218 524.68C316.338 525.39 316.711 525.951 317.34 526.369C317.96 526.788 318.656 526.929 319.419 526.802C320.809 526.563 322.485 525.45 324.466 523.469C327.091 520.861 328.975 517.648 330.105 513.829C331.241 510.01 331.488 506.236 330.838 502.485C330.082 498.113 328.265 494.227 325.371 490.819C322.477 487.411 318.618 484.945 313.788 483.435C308.957 481.918 303.857 481.627 298.487 482.546C292.355 483.6 287.009 485.999 282.432 489.735C277.855 493.472 274.64 498.255 272.77 504.091C270.908 509.92 270.497 515.899 271.551 522.02C272.606 528.14 275.006 533.715 278.588 537.863C282.178 542.018 286.799 544.746 292.453 546.046C298.106 547.346 304.148 547.451 310.564 546.345C317.429 545.164 322.978 543.027 327.218 539.925C331.451 536.824 334.442 533.431 336.177 529.732L343.281 528.506C342.421 531.481 340.611 534.679 337.852 538.087C335.1 541.495 331.623 544.417 327.435 546.846C323.24 549.282 317.99 551.038 311.679 552.122C305.868 553.123 300.379 553.295 295.205 552.652C290.037 552.002 285.468 550.485 281.497 548.079C277.526 545.68 274.326 542.676 271.903 539.081C268.852 534.515 266.833 529.366 265.846 523.634C264.746 517.244 265.008 510.937 266.631 504.704C268.605 497.059 272.202 490.849 277.437 486.073C282.664 481.29 289.469 478.182 297.852 476.739C304.35 475.618 310.407 475.947 316.038 477.711C321.669 479.482 326.425 482.733 330.322 487.486C333.642 491.574 335.758 496.274 336.67 501.588C337.979 509.181 336.461 516.377 332.139 523.185C328.288 529.291 323.531 532.833 317.871 533.805C316.068 534.119 314.558 534.089 313.354 533.73C312.142 533.371 311.193 532.729 310.49 531.795C310.041 531.197 309.592 530.113 309.166 528.551L309.151 528.574ZM288.31 521.205C288.93 524.792 290.254 527.43 292.303 529.127C294.352 530.823 296.468 531.481 298.667 531.107C300.133 530.853 301.606 530.15 303.079 528.992C304.552 527.834 305.876 526.264 307.065 524.284C308.246 522.304 309.076 519.897 309.562 517.08C310.048 514.262 310.056 511.512 309.6 508.844C308.987 505.287 307.626 502.671 305.524 501.02C303.423 499.361 301.097 498.748 298.555 499.189C296.88 499.473 295.377 500.175 294.045 501.281C292.714 502.387 291.518 503.994 290.448 506.124C289.387 508.246 288.669 510.728 288.295 513.567C287.921 516.407 287.928 518.948 288.317 521.205H288.31Z" fill="#D2D2F4"/>
<path d="M224.518 347.732C224.518 354.547 218.872 360.078 211.91 360.078C204.948 360.078 199.302 354.547 199.302 347.732C199.302 340.916 204.948 335.386 211.91 335.386C218.872 335.386 224.518 340.916 224.518 347.732Z" fill="#D2D2F4"/>
<path d="M243.37 334.273C242.667 334.273 241.957 334.026 241.389 333.518C237.979 330.461 225.52 320.612 207.887 321.867C195.421 322.771 186.544 328.795 182.364 332.3C181.108 333.353 179.238 333.196 178.177 331.933C177.122 330.678 177.287 328.802 178.543 327.749C183.277 323.773 193.327 316.965 207.461 315.941C227.42 314.491 241.508 325.641 245.36 329.086C246.586 330.177 246.683 332.061 245.591 333.279C245.001 333.936 244.193 334.265 243.378 334.265L243.37 334.273Z" fill="#D2D2F4"/>
<path d="M262.507 317.346C261.804 317.346 261.093 317.099 260.525 316.591C254.909 311.561 234.329 295.315 205.299 297.4C184.75 298.887 170.108 308.811 163.213 314.596C161.957 315.649 160.087 315.492 159.025 314.229C157.971 312.974 158.135 311.098 159.392 310.044C166.84 303.797 182.656 293.073 204.873 291.473C236.206 289.224 258.431 306.741 264.488 312.159C265.707 313.258 265.812 315.134 264.72 316.352C264.137 317.009 263.322 317.338 262.507 317.338V317.346Z" fill="#D2D2F4"/>
<path d="M280.335 300.553C279.632 300.553 278.921 300.307 278.353 299.791C270.68 292.923 242.54 270.72 202.907 273.582C174.819 275.608 154.815 289.172 145.393 297.078C144.136 298.132 142.267 297.968 141.205 296.712C140.151 295.457 140.315 293.581 141.571 292.527C151.54 284.157 172.71 269.801 202.473 267.656C244.47 264.622 274.202 288.103 282.309 295.367C283.528 296.458 283.632 298.334 282.541 299.559C281.95 300.21 281.142 300.546 280.327 300.546L280.335 300.553Z" fill="#D2D2F4"/>
</g>
<defs>
<clipPath id="clip0_421_384">
<rect width="486" height="614" fill="white"/>
</clipPath>
</defs>
</svg>
