<svg width="20" height="16" viewBox="0 0 20 16" fill="none" xmlns="http://www.w3.org/2000/svg">
<path d="M17.5 0H2.5C1.83718 0.000709029 1.2017 0.264329 0.733016 0.733016C0.264329 1.2017 0.000709029 1.83718 0 2.5V13.2143C0.000709029 13.8771 0.264329 14.5126 0.733016 14.9813C1.2017 15.45 1.83718 15.7136 2.5 15.7143H17.5C18.1628 15.7136 18.7983 15.45 19.267 14.9813C19.7357 14.5126 19.9993 13.8771 20 13.2143V2.5C19.9993 1.83718 19.7357 1.2017 19.267 0.733016C18.7983 0.264329 18.1628 0.000709029 17.5 0ZM16.867 4.13527L10.4384 9.13527C10.313 9.23272 10.1588 9.28562 10 9.28562C9.84122 9.28562 9.68696 9.23272 9.56161 9.13527L3.13304 4.13527C3.05751 4.07823 2.99407 4.00675 2.9464 3.92498C2.89873 3.84321 2.86779 3.75279 2.85538 3.65896C2.84296 3.56513 2.84932 3.46977 2.87408 3.37841C2.89884 3.28706 2.9415 3.20154 2.9996 3.12682C3.05769 3.0521 3.13006 2.98967 3.21249 2.94316C3.29492 2.89665 3.38577 2.86699 3.47977 2.8559C3.57376 2.8448 3.66903 2.8525 3.76002 2.87854C3.85102 2.90458 3.93593 2.94845 4.00982 3.00759L10 7.66652L15.9902 3.00759C16.14 2.89447 16.3283 2.84486 16.5143 2.86948C16.7004 2.89411 16.8693 2.99098 16.9845 3.13916C17.0997 3.28734 17.152 3.47492 17.13 3.66132C17.108 3.84773 17.0135 4.01798 16.867 4.13527Z" fill="white"/>
</svg>
