<svg width="18" height="18" viewBox="0 0 18 18" fill="none" xmlns="http://www.w3.org/2000/svg">
<path d="M9.1133 0.874778C4.54377 0.81306 0.813304 4.54353 0.875023 9.11306C0.93596 13.4955 4.50432 17.0638 8.88674 17.1248C13.4571 17.1873 17.1867 13.4568 17.1242 8.88728C17.0641 4.50408 13.4957 0.935716 9.1133 0.874778ZM12.711 5.84509L9.49846 13.131C9.31135 13.54 8.68674 13.4045 8.68674 12.9529V9.46853C8.68674 9.42709 8.67028 9.38735 8.64098 9.35804C8.61167 9.32874 8.57193 9.31228 8.53049 9.31228H5.0469C4.5969 9.31228 4.46096 8.69236 4.86838 8.50486L12.1547 5.28884C12.2326 5.25289 12.3196 5.24168 12.404 5.25673C12.4884 5.27178 12.5662 5.31236 12.6268 5.37299C12.6874 5.43362 12.728 5.5114 12.7431 5.59582C12.7581 5.68024 12.7469 5.76724 12.711 5.84509Z" fill="white"/>
</svg>
