<svg width="78" height="79" viewBox="0 0 78 79" fill="none" xmlns="http://www.w3.org/2000/svg">
<path d="M39 39.5C39 41.5784 38.6359 43.6568 37.9077 45.2769L27.626 68.1128C27.1568 69.1574 25.7842 71.5937 23.1928 71.5937C20.6014 71.5937 19.2319 69.1574 18.7566 68.1097L8.38652 45.0763C6.95449 41.9024 6.95449 37.113 8.38652 33.9376L18.7566 10.8903C19.2273 9.84259 20.5999 7.40625 23.1928 7.40625C25.7857 7.40625 27.1537 9.84259 27.6275 10.8903L37.9077 33.7262C38.6359 35.3432 39 37.4216 39 39.5Z" fill="white"/>
<path d="M34.5531 10.8995L33.5156 13.2279L36.2182 19.21L42.769 33.7139C43.5002 35.334 43.8643 37.417 43.8643 39.4907C43.8643 41.5645 43.5002 43.646 42.769 45.2645L36.2182 59.7792L33.5156 65.7629L34.5577 68.1113C35.0284 69.1574 36.4102 71.5937 39 71.5937C41.5898 71.5937 42.9731 69.1574 43.4439 68.1128L53.7469 45.2769C54.4781 43.666 54.8437 41.5845 54.8437 39.5C54.8437 37.4155 54.4781 35.3432 53.7484 33.7231L43.4484 10.9072C42.9777 9.85648 41.6036 7.40625 39 7.40625C36.3964 7.40625 35.0284 9.83952 34.5531 10.8995Z" fill="white"/>
<path d="M50.3953 10.8995L49.3594 13.2279L52.0604 19.21L58.6036 33.7139C59.3318 35.334 59.6974 37.417 59.6974 39.4907C59.6974 41.5645 59.3333 43.646 58.6036 45.2645L52.0528 59.7792L49.3594 65.7629L50.4014 68.1113C50.8721 69.1574 52.2539 71.5937 54.8438 71.5937C57.4336 71.5937 58.8154 69.1574 59.2846 68.1128L69.5815 45.2769C70.3097 43.666 70.6875 41.5768 70.6875 39.5C70.6875 37.4232 70.3097 35.3525 69.58 33.7324L59.2861 10.9088C58.8169 9.85649 57.4427 7.40625 54.8437 7.40625C52.2448 7.40625 50.8721 9.83952 50.3953 10.8995Z" fill="white"/>
</svg>
