<svg width="186" height="173" viewBox="0 0 186 173" fill="none" xmlns="http://www.w3.org/2000/svg">
<g clip-path="url(#clip0_922_507)">
<path d="M92.04 171.11V137.5C92.04 134.32 91.26 131.19 89.76 128.4L89.04 127.06L86.09 121.54C79.85 109.88 70.46 100.3 59.04 93.92L56.26 92.09L55.57 91.64C51.79 89.15 47.37 87.83 42.86 87.83H0C0.21 99.55 2.51 110.41 6.92 120.41C11.54 130.92 18.01 140.05 26.32 147.81C34.63 155.57 44.47 161.57 55.84 165.8C67.2 170.03 79.55 172.15 92.88 172.15H93.04C92.44 172.11 92.04 171.89 92.04 171.1V171.11ZM185.39 87.85H144.84C141.51 87.85 138.24 88.7 135.33 90.33L129.33 93.69L128.89 93.93C117.48 100.31 108.09 109.89 101.84 121.54L99.1 126.67C99.1 126.67 99.07 126.72 99.06 126.75C97.51 129.67 96.7 132.94 96.7 136.26V170.79C96.7 171.77 96.14 172.04 95.32 172.12C107.86 171.89 119.44 169.78 130.05 165.8C141.34 161.57 151.13 155.57 159.45 147.81C167.76 140.05 174.23 130.92 178.85 120.41C183.34 110.21 185.65 99.12 185.77 87.14C185.72 87.46 185.62 87.69 185.4 87.84L185.39 87.85ZM178.84 51.63C174.22 41.2 167.74 32.11 159.44 24.35C151.13 16.59 141.33 10.59 130.04 6.36C119.59 2.43 108.19 0.32 95.84 0.04C96.35 0.21 96.69 0.56 96.69 1.25V35.48C96.69 38.86 97.51 42.17 99.11 45.14L99.27 45.44L101.84 50.23C108.08 61.89 117.47 71.47 128.89 77.84L129.28 78.05L134.65 81.05C137.05 82.39 139.74 83.09 142.47 83.09H185.4C185.58 83.12 185.69 83.27 185.75 83.54C185.46 71.98 183.17 61.33 178.85 51.61L178.84 51.63ZM55.84 6.35C44.47 10.58 34.63 16.58 26.32 24.34C18.01 32.1 11.54 41.2 6.92 51.62C2.66 61.22 0.36 71.71 0.03 83.11H41.16C46.45 83.11 51.65 81.82 56.34 79.35C56.58 79.22 56.83 79.09 57.06 78.96L59.04 77.86C70.46 71.49 79.85 61.9 86.09 50.25L88.82 45.15L89.3 44.25C91.1 40.9 92.04 37.14 92.04 33.31V1.3C92.04 0.51 92.36 0.15 92.9 0H92.88C79.55 0 67.2 2.12 55.84 6.35Z" fill="white"/>
</g>
<defs>
<clipPath id="clip0_922_507">
<rect width="185.76" height="172.16" fill="white"/>
</clipPath>
</defs>
</svg>
