<svg width="36" height="36" viewBox="0 0 36 36" fill="none" xmlns="http://www.w3.org/2000/svg">
<path d="M18.0041 0H17.9959C8.07088 0 0 8.07294 0 18C0 21.9367 1.26969 25.5873 3.42632 28.5485L1.18326 35.2365L8.10175 33.0243C10.9478 34.9093 14.3432 36 18.0041 36C27.9291 36 36 27.925 36 18C36 8.075 27.9291 0 18.0041 0ZM28.4786 25.4185C28.0444 26.643 26.3199 27.6616 24.9452 27.9579C24.0048 28.1575 22.7763 28.3181 18.642 26.6039C13.3513 24.4123 9.94558 19.0372 9.68012 18.6873C9.42495 18.3395 7.54201 15.8413 7.54201 13.2587C7.54201 10.6761 8.85492 9.41877 9.38379 8.87756C9.81799 8.43512 10.5341 8.23345 11.2235 8.23345C11.4458 8.23345 11.6454 8.24374 11.8265 8.25197C12.3553 8.27461 12.6208 8.30753 12.9686 9.14096C13.4028 10.1884 14.4605 12.771 14.586 13.0365C14.7157 13.3019 14.8433 13.6621 14.6642 14.0098C14.4955 14.37 14.3453 14.5305 14.0798 14.8371C13.8143 15.1416 13.5633 15.3762 13.2978 15.7055C13.055 15.9895 12.7792 16.2961 13.0859 16.825C13.3925 17.3435 14.4502 19.068 16.0059 20.455C18.0165 22.2433 19.6442 22.8154 20.2266 23.0582C20.6608 23.2372 21.1794 23.194 21.4963 22.8565C21.8996 22.4223 22.3956 21.7021 22.9018 20.9942C23.2619 20.4859 23.7167 20.4221 24.1941 20.6032C24.6798 20.7719 27.2521 22.0437 27.781 22.305C28.3098 22.5705 28.6576 22.6981 28.7852 22.9203C28.9128 23.1426 28.9128 24.19 28.4786 25.4185Z" fill="white"/>
</svg>
